<?xml version="1.0" encoding="UTF-8" standalone="no"?>
<svg
   version="1.1"
   width="260.80563"
   height="68.582741"
   id="svg23"
   viewBox="0 0 260.80563 68.582741"
   sodipodi:docname="fluidra.svg"
   inkscape:version="1.1.1 (3bf5ae0d25, 2021-09-20)"
   xmlns:inkscape="http://www.inkscape.org/namespaces/inkscape"
   xmlns:sodipodi="http://sodipodi.sourceforge.net/DTD/sodipodi-0.dtd"
   xmlns="http://www.w3.org/2000/svg"
   xmlns:svg="http://www.w3.org/2000/svg">
  <defs
     id="defs27" />
  <sodipodi:namedview
     id="namedview25"
     pagecolor="#ffffff"
     bordercolor="#666666"
     borderopacity="1.0"
     inkscape:pageshadow="2"
     inkscape:pageopacity="0.0"
     inkscape:pagecheckerboard="0"
     showgrid="false"
     fit-margin-top="0"
     fit-margin-left="0"
     fit-margin-right="0"
     fit-margin-bottom="0"
     inkscape:zoom="0.97637485"
     inkscape:cx="-88.593023"
     inkscape:cy="143.89965"
     inkscape:window-width="1920"
     inkscape:window-height="1017"
     inkscape:window-x="3832"
     inkscape:window-y="-8"
     inkscape:window-maximized="1"
     inkscape:current-layer="svg23" />
  <g
     id="Layer1000"
     transform="translate(-123.46457,-331.92016)">
    <path
       d="m 376.0115,373.46 a 8.2587,8.2587 0 0 1 8.2587,8.2588 8.2587,8.2587 0 1 1 -8.2587,-8.2588 z"
       style="fill:#ffdc00;fill-rule:evenodd"
       id="path2" />
    <path
       d="m 312.6606,343.4825 c -0.2044,-0.8237 -0.1999,-5.4672 0.0173,-6.2784 3.4905,-0.0689 7.0483,-0.007 10.5468,-0.007 2.5144,0 7.3888,-0.4882 7.3457,3.2125 -0.0448,3.8347 -5.5556,3.0974 -7.4897,3.0974 -3.2828,-3e-4 -7.2178,0.197 -10.4201,-0.0247 z m -6.6989,13.7605 c 0.8056,0.1698 5.8147,0.1837 6.5767,-0.002 0.0811,-2.1711 0.0269,-5.3269 0.006,-7.6306 -0.0122,-1.3456 0.1987,-1.0063 1.6084,-0.9973 2.4324,0.0159 8.1958,-0.2976 10.2234,0.1018 0.3005,0.832 3.7466,5.4147 4.4462,6.4103 0.5153,0.7333 1.0811,1.296 1.457,2.1756 l 7.5305,0.0467 c 0.003,-0.2347 -2.7626,-4.2412 -3.0951,-4.6751 -0.5908,-0.7713 -1.0707,-1.4797 -1.6376,-2.2465 -0.3056,-0.4136 -1.4485,-1.965 -1.5908,-2.3865 1.514,-0.6834 2.8063,-1.0559 3.9549,-2.4715 1.7266,-2.1286 2.0982,-5.2291 1.2175,-7.9481 -0.7019,-2.1673 -2.9529,-4.0056 -5.0862,-4.8115 -2.977,-1.1245 -14.5404,-0.7126 -19.0027,-0.7126 -1.8399,0 -4.8427,-0.1812 -6.5432,0.0416 -0.2369,1.2422 -0.1202,24.1019 -0.0652,25.1059 z"
       style="fill:#00327e;fill-rule:evenodd"
       id="path4" />
    <path
       d="m 267.9619,352.0414 c -0.4309,-0.7129 -0.1256,-6.9295 -0.1264,-8.3211 -0.005,-7.3564 -0.6007,-6.5151 1.8289,-6.5211 l 9.5026,-0.004 c 4.2366,-9e-4 8.263,2.954 8.3814,7.5282 0.1106,4.2787 -4.0762,7.4914 -8.5254,7.4912 -0.6463,0 -10.516,0.2154 -11.0611,-0.173 z m -6.7374,5.1772 c 0.8337,0.2333 19.7586,0.3362 21.7097,-0.1184 1.1458,-0.2671 1.7702,-0.3705 2.7916,-0.7691 2.8133,-1.0984 4.5703,-2.1124 6.4749,-4.4745 2.7584,-3.4205 2.7893,-7.7499 1.3875,-11.5786 -0.6324,-1.7278 -1.7291,-3.1547 -3.0379,-4.341 -5.8062,-5.2628 -17.272,-3.8427 -25.3494,-3.8415 -0.6224,0 -3.1793,-0.0893 -3.5852,0.006 -0.6557,0.155 -0.4025,1.8451 -0.4025,3.1243 0,6.9049 -0.2061,15.4622 0.0113,21.9923 z"
       style="fill:#00327e;fill-rule:evenodd"
       id="path6" />
    <path
       d="m 228.9121,332.2123 c -0.9933,-0.0953 -2.1487,-0.0397 -3.1615,-0.0403 l -2.4562,-0.0142 c -0.2832,0.0153 -0.5995,0.0369 -0.7418,0.1891 -0.8802,0.9417 0.8529,15.6827 -0.8623,17.6785 -0.9584,1.1152 -1.3938,1.4143 -2.7238,1.893 -3.4801,1.2524 -9.1069,1.262 -12.1431,-0.2321 -3.2624,-1.6056 -2.6833,-3.7698 -2.6841,-6.5262 -9e-4,-3.1196 8e-4,-6.2388 8e-4,-9.3581 0,-3.4514 0.3745,-3.6394 -0.9808,-3.6445 -6.9052,-0.0266 -5.7532,-0.8401 -5.7551,3.6445 -0.001,2.8696 -0.1894,12.3033 0.0941,13.8759 0.2735,1.518 0.6862,2.4701 1.5185,3.5087 3.5215,4.396 11.9219,5.3873 18.0139,4.5831 2.8791,-0.3804 5.2333,-0.9 7.2935,-2.0891 1.7255,-0.9961 3.9169,-2.8698 4.4093,-4.9434 0.5136,-2.162 0.2676,-6.6577 0.2676,-9.1766 0,-2.2127 0.2679,-7.4897 -0.089,-9.3483 z"
       style="fill:#00327e;fill-rule:evenodd"
       id="path8" />
    <path
       d="m 367.2822,346.8509 -8.7128,-0.0198 c 0.0212,-0.2945 4.3494,-8.1085 4.7222,-8.6723 0.4657,-0.7044 0.0136,-0.3249 0.5822,-0.5259 0.6673,0.8394 2.257,3.9572 2.9333,5.1259 2.6328,4.5499 2.7017,4.0907 0.4751,4.0921 z m -21.1085,10.4723 6.6274,0.0213 c 0.5188,-0.8974 2.4835,-4.8212 2.9628,-5.3651 l 15.9817,-0.0173 c 0.4122,0.1377 1.4018,2.2677 1.9874,3.3077 0.161,0.286 0.2234,0.436 0.4054,0.7461 1.0442,1.7804 -0.1092,1.4219 6.552,1.3501 0.5578,-0.006 0.8968,0.0777 0.7628,-0.4447 -0.0122,-0.0479 -0.4816,-0.824 -0.5341,-0.9142 -0.3713,-0.6383 -0.6715,-1.2353 -1.025,-1.8468 -0.7302,-1.2628 -1.3507,-2.4712 -2.0313,-3.7493 l -8.2494,-14.9106 c -2.5257,-4.4569 -0.4521,-3.346 -8.2358,-3.4081 -2.4219,-0.0192 -1.4567,0.3907 -2.9758,2.7596 -2.9775,4.6437 -7.395,13.8226 -10.3187,18.6154 -0.3962,0.65 -2.0032,3.2516 -1.9094,3.8559 z"
       style="fill:#00327e;fill-rule:evenodd"
       id="path10" />
    <path
       d="m 123.7025,357.2218 c 0.4918,0.3106 5.4114,0.1868 6.3836,0.098 0.3215,-1.3152 -0.0215,-7.3493 0.0678,-9.4424 0.0408,-0.9536 0.2112,-0.6971 2.4418,-0.6962 l 9.5028,-3e-4 c 0.4161,0 2.7295,0.1491 3.0243,-0.1503 0.4014,-0.6701 0.2015,-3.8624 0.1185,-4.8835 -2.2227,-0.3699 -14.1627,0.3124 -14.8853,-0.2106 -0.4093,-0.3705 -0.2032,-4.8759 0.0371,-4.4529 l 0.3379,-0.1061 c 1.6951,-0.2718 20.5268,0.3728 20.9943,-0.1357 0.3262,-0.7688 0.1312,-2.4713 0.1397,-3.4566 0.0176,-2.1047 0.0896,-1.6957 -1.9916,-1.6923 l -25.7794,-0.011 c -0.6832,0.0864 -0.5431,0.532 -0.536,1.2653 l 0.006,20.3069 c 0,0.9419 -0.2985,2.9029 0.1389,3.5677 z"
       style="fill:#00327e;fill-rule:evenodd"
       id="path12" />
    <path
       d="m 161.9388,357.2813 c 1.7453,0.1704 16.7017,0.0499 19.7541,0.0499 1.6999,0 5.1284,0.1888 6.6248,-0.0746 l 0.0162,-4.0345 c -0.002,-1.2731 0.3449,-1.0024 -2.6096,-1.0075 l -16.2697,10e-4 c -0.6078,-10e-4 -0.4525,-0.017 -0.9482,-0.1866 -0.0238,-6.0774 0.1357,-13.3225 -0.007,-19.1069 l -0.0301,-0.6049 -5.3501,-0.0638 c -0.8895,-3e-4 -1.0687,-0.2202 -1.2158,0.4998 z"
       style="fill:#00327e;fill-rule:evenodd"
       id="path14" />
    <path
       d="m 241.9313,357.2065 c 0.5111,0.367 5.7138,0.1369 6.5064,0.1315 0.2917,-1.2875 0.1636,-24.4616 -0.0454,-25.0263 -1.4692,-0.2922 -4.115,-0.1797 -5.6664,-0.155 -1.3978,0.0224 -0.955,0.4813 -0.955,4.2213 l 0.006,20.431 c 0.0581,0.332 0.0116,0.2251 0.1547,0.3975 z"
       style="fill:#00327e;fill-rule:evenodd"
       id="path16" />
    <path
       d="m 352.2325,371.7819 a 9.8974,9.8974 0 0 1 9.8975,9.8975 9.8974,9.8974 0 1 1 -9.8975,-9.8975 z"
       style="fill:#b0ca30;fill-rule:evenodd"
       id="path18" />
    <path
       d="m 282.2128,362.8559 c 6.0624,0 11.4542,2.8661 14.8969,7.3168 l 9e-4,-9e-4 0.0921,0.1222 0.1426,0.1891 c 9.1664,12.1575 9.6593,7.3854 17.6958,1.2365 0.5423,-0.4649 1.1228,-0.887 1.7365,-1.2598 l 3e-4,-2e-4 c 1.9823,-1.2033 4.3087,-1.8961 6.7969,-1.8961 7.2439,0 13.1159,5.8719 13.1159,13.1159 0,7.2439 -5.872,13.1159 -13.1159,13.1159 -3.5036,0 -6.6861,-1.3734 -9.0385,-3.6114 l -0.0108,-0.0102 c -8.53,-7.8514 -9.4397,-7.5347 -17.1734,1.694 l -3e-4,-0.001 c -3.4288,4.6324 -8.9328,7.6362 -15.139,7.6362 -10.3964,0 -18.8235,-8.4271 -18.8235,-18.8234 0,-10.3964 8.4271,-18.8235 18.8235,-18.8235 z"
       style="fill:#0096d0;fill-rule:evenodd"
       id="path20" />
  </g>
</svg>
